<?xml version="1.0" encoding="utf-8"?>
<svg version="1.1" xmlns:xlink="http://www.w3.org/1999/xlink" width="53px" height="53px" xmlns="http://www.w3.org/2000/svg">
  <g transform="matrix(1 0 0 1 -185 -257 )">
    <path d="M 211.5 257  C 226.34 257  238 268.66  238 283.5  C 238 298.34  226.34 310  211.5 310  C 196.66 310  185 298.34  185 283.5  C 185 268.66  196.66 257  211.5 257  Z " fill-rule="nonzero" fill="#ffffff" stroke="none" />
    <path d="M 211.5 257.5  C 226.06 257.5  237.5 268.94  237.5 283.5  C 237.5 298.06  226.06 309.5  211.5 309.5  C 196.94 309.5  185.5 298.06  185.5 283.5  C 185.5 268.94  196.94 257.5  211.5 257.5  Z " stroke-width="1" stroke="#797979" fill="none" />
  </g>
</svg>