<?xml version="1.0" encoding="utf-8"?>
<svg version="1.1" xmlns:xlink="http://www.w3.org/1999/xlink" width="35px" height="35px" xmlns="http://www.w3.org/2000/svg">
  <g transform="matrix(1 0 0 1 -971 -456 )">
    <path d="M 988.5 456  C 998.3 456  1006 463.7  1006 473.5  C 1006 483.3  998.3 491  988.5 491  C 978.7 491  971 483.3  971 473.5  C 971 463.7  978.7 456  988.5 456  Z " fill-rule="nonzero" fill="#ffffff" stroke="none" />
    <path d="M 988.5 456.5  C 998.02 456.5  1005.5 463.98  1005.5 473.5  C 1005.5 483.02  998.02 490.5  988.5 490.5  C 978.98 490.5  971.5 483.02  971.5 473.5  C 971.5 463.98  978.98 456.5  988.5 456.5  Z " stroke-width="1" stroke="#797979" fill="none" />
  </g>
</svg>